<svg width="26" height="17" viewBox="0 0 26 17" fill="none" xmlns="http://www.w3.org/2000/svg">
<path d="M16.4352 12.6816C17.149 12.6816 17.8557 12.541 18.515 12.2679C19.1744 11.9948 19.7736 11.5945 20.2782 11.0898C20.7829 10.5851 21.1832 9.98601 21.4563 9.32663C21.7295 8.66726 21.87 7.96054 21.87 7.24683C21.87 6.53313 21.7295 5.82641 21.4563 5.16703C21.1832 4.50765 20.7829 3.90853 20.2782 3.40386C19.7736 2.89919 19.1744 2.49887 18.515 2.22575C17.8557 1.95262 17.149 1.81205 16.4352 1.81205C14.9939 1.81205 13.6115 2.38464 12.5923 3.40386C11.5731 4.42308 11.0005 5.80544 11.0005 7.24683C11.0005 8.68823 11.5731 10.0706 12.5923 11.0898C13.6115 12.109 14.9939 12.6816 16.4352 12.6816ZM22.1599 11.6907L25.4026 14.9334C25.4891 15.017 25.558 15.117 25.6054 15.2276C25.6528 15.3381 25.6777 15.457 25.6787 15.5773C25.6796 15.6975 25.6566 15.8168 25.611 15.9281C25.5654 16.0394 25.4981 16.1405 25.4129 16.2255C25.3278 16.3104 25.2267 16.3776 25.1153 16.4231C25.004 16.4686 24.8847 16.4914 24.7644 16.4903C24.6441 16.4891 24.5253 16.4641 24.4148 16.4165C24.3043 16.369 24.2044 16.2999 24.1209 16.2133L20.8782 12.9706C19.4221 14.1009 17.59 14.6338 15.7548 14.4608C13.9196 14.2878 12.2193 13.4219 11.0001 12.0395C9.78081 10.657 9.13424 8.86182 9.19197 7.01941C9.24971 5.177 10.0074 3.42584 11.3108 2.12242C12.6143 0.818997 14.3654 0.0612954 16.2078 0.00355889C18.0502 -0.0541776 19.8454 0.592391 21.2279 1.81164C22.6104 3.0309 23.4762 4.73117 23.6492 6.56636C23.8222 8.40154 23.2893 10.2337 22.159 11.6898L22.1599 11.6907Z" fill="#181725"/>
<rect width="8.02083" height="2.17321" rx="1.08661" fill="#181725"/>
<rect y="6.73755" width="5.8552" height="2.17321" rx="1.08661" fill="#181725"/>
<rect y="13.4753" width="8.02083" height="2.17321" rx="1.08661" fill="#181725"/>
</svg>
