<svg width="22" height="22" viewBox="0 0 22 22" fill="none" xmlns="http://www.w3.org/2000/svg">
<path d="M4.52936 1.85657H17.21C17.9187 1.85657 18.5986 2.13865 19.0997 2.63977C19.6007 3.14087 19.8819 3.8208 19.8819 4.52942V6.34094C19.8818 7.12644 19.5436 7.83342 19.003 8.32239L18.9883 8.33606V18.0841C18.9883 18.5526 18.802 19.0019 18.4708 19.3331C18.1395 19.6644 17.6902 19.8507 17.2217 19.8507H10.3018V19.8497L10.293 19.8517C10.1845 19.8722 10.0743 19.8819 9.96393 19.882H8.1524C8.04186 19.8819 7.93094 19.8722 7.82233 19.8517L7.8233 19.8507H4.53912C4.07067 19.8507 3.62135 19.6644 3.2901 19.3331C2.95885 19.0019 2.77252 18.5526 2.77252 18.0841V8.26477L2.72467 8.31165C2.45645 8.0665 2.24103 7.7693 2.09186 7.43762C1.93679 7.0928 1.85601 6.71903 1.85651 6.34094V4.52942C1.85651 3.82073 2.13859 3.14089 2.63971 2.63977C3.14083 2.13865 3.82067 1.85657 4.52936 1.85657ZM13.5567 8.33215C13.0673 8.77113 12.4329 9.01372 11.7755 9.01282H9.96393C9.27988 9.01282 8.65473 8.75518 8.18268 8.33215L8.1524 8.30481L8.12213 8.33215C7.63282 8.77108 6.99821 9.01366 6.34088 9.01282H4.49323V18.13H6.3858V13.587C6.3858 13.1186 6.57214 12.6693 6.90338 12.338C7.23462 12.0068 7.684 11.8204 8.1524 11.8204H9.96393C10.4323 11.8205 10.8817 12.0068 11.213 12.338C11.5441 12.6692 11.7305 13.1186 11.7305 13.587V18.13H17.2676V9.01282H15.3985C14.7144 9.01281 14.0893 8.75522 13.6172 8.33215L13.587 8.30481L13.5567 8.33215ZM8.10651 18.13H9.96393V18.0851H10.0089V13.5421H8.10651V18.13ZM14.4932 11.8204H15.3985C15.6266 11.8204 15.8455 11.9112 16.0069 12.0724C16.1682 12.2337 16.2587 12.4527 16.2589 12.6808V15.3986C16.2589 15.6268 16.1683 15.8456 16.0069 16.007C15.8455 16.1683 15.6267 16.2589 15.3985 16.2589H14.4932C14.265 16.2589 14.0452 16.1683 13.8839 16.007C13.7226 15.8456 13.6319 15.6267 13.6319 15.3986V12.6808C13.632 12.4527 13.7226 12.2337 13.8839 12.0724C14.0452 11.911 14.265 11.8204 14.4932 11.8204ZM4.52936 3.57825C4.27711 3.57825 4.03487 3.6782 3.85651 3.85657C3.67814 4.03493 3.57819 4.27718 3.57819 4.52942V6.34094C3.57827 6.59301 3.67831 6.83454 3.85651 7.01282C4.03487 7.19118 4.27711 7.29211 4.52936 7.29211H6.34088C6.59301 7.29203 6.83447 7.19111 7.01276 7.01282C7.19105 6.83453 7.29197 6.59307 7.29205 6.34094V3.57825H4.52936ZM9.01276 6.34094C9.01284 6.59296 9.11294 6.83455 9.29108 7.01282C9.46944 7.19118 9.71168 7.29211 9.96393 7.29211H11.7755C12.0277 7.29209 12.27 7.19116 12.4483 7.01282C12.6264 6.83456 12.7265 6.59289 12.7266 6.34094V3.57825H9.01276V6.34094ZM14.4473 6.34094C14.4474 6.59291 14.5476 6.83456 14.7256 7.01282C14.904 7.19117 15.1463 7.2921 15.3985 7.29211H17.21C17.4623 7.29211 17.7045 7.19118 17.8829 7.01282C18.061 6.83455 18.1611 6.59295 18.1612 6.34094V4.52942C18.1612 4.27724 18.0612 4.03492 17.8829 3.85657C17.7045 3.6782 17.4623 3.57825 17.21 3.57825H14.4473V6.34094Z" fill="#181725" stroke="white" stroke-width="0.0905797"/>
</svg>
