<svg width="22" height="22" viewBox="0 0 22 22" fill="none" xmlns="http://www.w3.org/2000/svg">
<path d="M7.27345 10.933C7.40101 10.8855 7.53819 10.8608 7.67688 10.8604C7.81556 10.8599 7.95294 10.8838 8.08089 10.9305C8.20885 10.9772 8.32477 11.0458 8.42182 11.1323C8.51887 11.2188 8.59507 11.3214 8.64592 11.434C8.69677 11.5467 8.72123 11.6671 8.71787 11.7881C8.7145 11.9092 8.68337 12.0284 8.62632 12.1388C8.56927 12.2491 8.48746 12.3484 8.38571 12.4307C8.28397 12.5129 8.16437 12.5766 8.03397 12.6178C7.34042 12.8564 6.74516 13.2717 6.32566 13.8096C5.90616 14.3476 5.68183 14.9833 5.68186 15.6341V17.2102C5.68186 17.4504 5.79118 17.6808 5.98575 17.8507C6.18033 18.0206 6.44423 18.116 6.7194 18.116H15.0197C15.2949 18.116 15.5588 18.0206 15.7534 17.8507C15.948 17.6808 16.0573 17.4504 16.0573 17.2102V15.7183C16.0574 15.0467 15.8237 14.3908 15.3871 13.8378C14.9506 13.2847 14.3318 12.8605 13.6128 12.6214C13.4816 12.5817 13.3609 12.5193 13.2578 12.4381C13.1547 12.3569 13.0713 12.2584 13.0126 12.1485C12.9539 12.0386 12.9211 11.9195 12.9161 11.7984C12.9111 11.6772 12.934 11.5564 12.9835 11.4431C13.0329 11.3298 13.108 11.2263 13.2041 11.1388C13.3002 11.0513 13.4155 10.9815 13.5431 10.9336C13.6706 10.8857 13.8079 10.8606 13.9468 10.8599C14.0857 10.8592 14.2233 10.8828 14.3516 10.9294C15.4634 11.2991 16.4203 11.9551 17.0955 12.8103C17.7707 13.6655 18.1323 14.6797 18.1324 15.7183V17.2102C18.1324 17.9309 17.8044 18.6221 17.2207 19.1317C16.637 19.6413 15.8453 19.9276 15.0197 19.9276H6.7194C5.89389 19.9276 5.10218 19.6413 4.51845 19.1317C3.93472 18.6221 3.60678 17.9309 3.60678 17.2102L3.60678 15.6341C3.60692 14.6198 3.95672 13.6289 4.61067 12.7905C5.26461 11.9521 6.19244 11.3048 7.27345 10.933ZM10.8696 1.81165C11.9703 1.81165 13.0259 2.19337 13.8042 2.87285C14.5825 3.55233 15.0197 4.4739 15.0197 5.43483V7.24643C15.0197 8.20736 14.5825 9.12893 13.8042 9.80841C13.0259 10.4879 11.9703 10.8696 10.8696 10.8696C9.76888 10.8696 8.71327 10.4879 7.93496 9.80841C7.15665 9.12893 6.7194 8.20736 6.7194 7.24643V5.43483C6.7194 4.4739 7.15665 3.55233 7.93496 2.87285C8.71327 2.19337 9.76888 1.81165 10.8696 1.81165ZM10.8696 3.62324C10.3192 3.62324 9.79142 3.8141 9.40227 4.15384C9.01311 4.49358 8.79449 4.95437 8.79449 5.43483V7.24643C8.79449 7.72689 9.01311 8.18768 9.40227 8.52742C9.79142 8.86716 10.3192 9.05802 10.8696 9.05802C11.4199 9.05802 11.9477 8.86716 12.3369 8.52742C12.726 8.18768 12.9447 7.72689 12.9447 7.24643V5.43483C12.9447 4.95437 12.726 4.49358 12.3369 4.15384C11.9477 3.8141 11.4199 3.62324 10.8696 3.62324Z" fill="#181725"/>
</svg>
